<?xml version="1.0" encoding="UTF-8"?>
<svg width="338px" height="233px" viewBox="0 0 338 233" version="1.1" xmlns="http://www.w3.org/2000/svg" xmlns:xlink="http://www.w3.org/1999/xlink">
    <!-- Generator: Sketch 50.2 (55047) - http://www.bohemiancoding.com/sketch -->
    <title>Group 29</title>
    <desc>Created with Sketch.</desc>
    <defs></defs>
    <g id="Home" stroke="none" stroke-width="1" fill="none" fill-rule="evenodd">
        <g transform="translate(-275.000000, -996.000000)" id="Group-42">
            <g transform="translate(268.000000, 996.000000)">
                <g id="Group-45">
                    <g id="Group-29">
                        <g id="Group-44">
                            <g id="Group-43" opacity="0.049999997" transform="translate(0.000000, 13.000000)" fill="#7A62CB">
                                <path d="M281.803082,85.968928 L245.208096,85.968928 C238.967278,85.968928 233.908096,91.0281103 233.908096,97.268928 C233.908096,103.509746 238.967278,108.568928 245.208096,108.568928 L274.310046,108.568928 L266.81701,108.568928 C273.057827,108.568928 278.11701,113.62811 278.11701,119.868928 C278.11701,126.109746 273.057827,131.168928 266.81701,131.168928 L155.291661,131.168928 C149.050844,131.168928 143.991661,126.109746 143.991661,119.868928 C143.991661,113.62811 149.050844,108.568928 155.291661,108.568928 L147.798625,108.568928 L176.900575,108.568928 C183.141393,108.568928 188.200575,103.509746 188.200575,97.268928 C188.200575,91.0281103 183.141393,85.968928 176.900575,85.968928 L140.305589,85.968928 L87.8543354,85.968928 C81.6135178,85.968928 76.5543354,80.9097456 76.5543354,74.668928 C76.5543354,68.4281103 81.6135178,63.368928 87.8543354,63.368928 L140.305589,63.368928 L154.421466,63.368928 C160.662284,63.368928 165.721466,58.3097456 165.721466,52.068928 C165.721466,45.8281103 160.662284,40.768928 154.421466,40.768928 L140.305589,40.768928 L87.8543354,40.768928 C81.6135178,40.768928 76.5543354,35.7097456 76.5543354,29.468928 C76.5543354,23.2281103 81.6135178,18.168928 87.8543354,18.168928 L334.254335,18.168928 C340.495153,18.168928 345.554335,23.2281103 345.554335,29.468928 C345.554335,35.7097456 340.495153,40.768928 334.254335,40.768928 L281.803082,40.768928 L267.687205,40.768928 C261.446387,40.768928 256.387205,45.8281103 256.387205,52.068928 C256.387205,58.3097456 261.446387,63.368928 267.687205,63.368928 L281.803082,63.368928 L334.254335,63.368928 C340.495153,63.368928 345.554335,68.4281103 345.554335,74.668928 C345.554335,80.9097456 340.495153,85.968928 334.254335,85.968928 L281.803082,85.968928 Z" id="Combined-Shape" transform="translate(211.054335, 74.668928) rotate(-8.000000) translate(-211.054335, -74.668928) "></path>
                                <path d="M211.803082,137.968928 L175.208096,137.968928 C168.967278,137.968928 163.908096,143.02811 163.908096,149.268928 C163.908096,155.509746 168.967278,160.568928 175.208096,160.568928 L204.310046,160.568928 L196.81701,160.568928 C203.057827,160.568928 208.11701,165.62811 208.11701,171.868928 C208.11701,178.109746 203.057827,183.168928 196.81701,183.168928 L85.2916614,183.168928 C79.0508437,183.168928 73.9916614,178.109746 73.9916614,171.868928 C73.9916614,165.62811 79.0508437,160.568928 85.2916614,160.568928 L77.7986251,160.568928 L106.900575,160.568928 C113.141393,160.568928 118.200575,155.509746 118.200575,149.268928 C118.200575,143.02811 113.141393,137.968928 106.900575,137.968928 L70.3055889,137.968928 L17.8543354,137.968928 C11.6135178,137.968928 6.55433545,132.909746 6.55433545,126.668928 C6.55433545,120.42811 11.6135178,115.368928 17.8543354,115.368928 L70.3055889,115.368928 L84.4214664,115.368928 C90.662284,115.368928 95.7214664,110.309746 95.7214664,104.068928 C95.7214664,97.8281103 90.662284,92.768928 84.4214664,92.768928 L70.3055889,92.768928 L17.8543354,92.768928 C11.6135178,92.768928 6.55433545,87.7097456 6.55433545,81.468928 C6.55433545,75.2281103 11.6135178,70.168928 17.8543354,70.168928 L264.254335,70.168928 C270.495153,70.168928 275.554335,75.2281103 275.554335,81.468928 C275.554335,87.7097456 270.495153,92.768928 264.254335,92.768928 L211.803082,92.768928 L197.687205,92.768928 C191.446387,92.768928 186.387205,97.8281103 186.387205,104.068928 C186.387205,110.309746 191.446387,115.368928 197.687205,115.368928 L211.803082,115.368928 L264.254335,115.368928 C270.495153,115.368928 275.554335,120.42811 275.554335,126.668928 C275.554335,132.909746 270.495153,137.968928 264.254335,137.968928 L211.803082,137.968928 Z" id="Combined-Shape-Copy" transform="translate(141.054335, 126.668928) scale(-1, -1) rotate(-8.000000) translate(-141.054335, -126.668928) "></path>
                            </g>
                            <g id="Group-40" transform="translate(48.000000, 0.000000)" fill-rule="nonzero">
                                <g id="Group-41">
                                    <g id="chatting-communication-chat-bubble-3b6bea64cc673e7f" transform="translate(165.000000, 0.000000)">
                                        <path d="M36.29,0 C16.14,0 0,3.32 0,27.75 C0,43.23 6.72,50.23 16.72,53.28 L16.72,64.28 L25.72,55.05 C29.260051,55.3816676 32.8145352,55.5351946 36.37,55.51 C56.53,55.51 72.81,52.19 72.81,27.76 C72.81,3.33 56.45,0 36.29,0 Z" id="Shape" fill="#7289DA" opacity="0.552399554"></path>
                                        <circle id="Oval" fill="#FFFFFF" cx="22.3" cy="27.76" r="4.37"></circle>
                                        <circle id="Oval" fill="#FFFFFF" cx="36.3" cy="27.76" r="4.37"></circle>
                                        <circle id="Oval" fill="#FFFFFF" cx="50.3" cy="27.76" r="4.37"></circle>
                                    </g>
                                    <g id="chatting-communication-chat-bubble-3b6bea64cc673e7f-copy" transform="translate(114.500000, 23.000000) scale(-1, 1) translate(-114.500000, -23.000000) translate(92.000000, 3.000000)">
                                        <path d="M22.3705479,0 C9.94931507,0 0,2.04307692 0,17.0769231 C0,26.6030769 4.14246575,30.9107692 10.3068493,32.7876923 L10.3068493,39.5569231 L15.8547945,33.8769231 C18.0370178,34.0810262 20.2281381,34.1755044 22.419863,34.16 C34.8472603,34.16 44.8828767,32.1169231 44.8828767,17.0830769 C44.8828767,2.04923077 34.7979452,0 22.3705479,0 Z" id="Shape" fill="#7289DA" opacity="0.552399554"></path>
                                        <ellipse id="Oval" fill="#FFFFFF" cx="13.7465753" cy="17.0830769" rx="2.69383562" ry="2.68923077"></ellipse>
                                        <ellipse id="Oval" fill="#FFFFFF" cx="22.3767123" cy="17.0830769" rx="2.69383562" ry="2.68923077"></ellipse>
                                        <ellipse id="Oval" fill="#FFFFFF" cx="31.0068493" cy="17.0830769" rx="2.69383562" ry="2.68923077"></ellipse>
                                    </g>
                                    <g id="chatting-communication-chat-bubble-3b6bea64cc673e7f-copy-2" transform="translate(0.000000, 22.000000)">
                                        <path d="M25.850411,0 C11.4969863,0 0,2.37567084 0,19.8568873 C0,30.9338104 4.78684932,35.9427549 11.910137,38.1252236 L20.7232639,49.5821221 L18.3210959,39.391771 C20.8427761,39.6291003 23.3747374,39.7389586 25.9073973,39.7209302 C40.2679452,39.7209302 51.8646575,37.3452594 51.8646575,19.8640429 C51.8646575,2.38282648 40.2109589,0 25.850411,0 Z" id="Shape" fill="#7289DA" opacity="0.552399554"></path>
                                        <ellipse id="Oval" fill="#FFFFFF" cx="15.8849315" cy="19.8640429" rx="3.11287671" ry="3.12701252"></ellipse>
                                        <ellipse id="Oval" fill="#FFFFFF" cx="25.8575342" cy="19.8640429" rx="3.11287671" ry="3.12701252"></ellipse>
                                        <ellipse id="Oval" fill="#FFFFFF" cx="35.830137" cy="19.8640429" rx="3.11287671" ry="3.12701252"></ellipse>
                                    </g>
                                </g>
                                <g id="Group-41-Copy" transform="translate(78.000000, 200.500000) scale(-1, -1) translate(-78.000000, -200.500000) translate(0.000000, 168.000000)">
                                    <g id="chatting-communication-chat-bubble-3b6bea64cc673e7f" transform="translate(83.000000, 0.000000)">
                                        <path d="M36.29,0 C16.14,0 0,3.32 0,27.75 C0,43.23 6.72,50.23 16.72,53.28 L16.72,64.28 L25.72,55.05 C29.260051,55.3816676 32.8145352,55.5351946 36.37,55.51 C56.53,55.51 72.81,52.19 72.81,27.76 C72.81,3.33 56.45,0 36.29,0 Z" id="Shape" fill="#7289DA" opacity="0.552399554"></path>
                                        <circle id="Oval" fill="#FFFFFF" cx="22.3" cy="27.76" r="4.37"></circle>
                                        <circle id="Oval" fill="#FFFFFF" cx="36.3" cy="27.76" r="4.37"></circle>
                                        <circle id="Oval" fill="#FFFFFF" cx="50.3" cy="27.76" r="4.37"></circle>
                                    </g>
                                    <g id="chatting-communication-chat-bubble-3b6bea64cc673e7f-copy" transform="translate(22.500000, 33.000000) scale(-1, 1) translate(-22.500000, -33.000000) translate(0.000000, 13.000000)">
                                        <path d="M22.3705479,0 C9.94931507,0 0,2.04307692 0,17.0769231 C0,26.6030769 4.14246575,30.9107692 10.3068493,32.7876923 L10.3068493,39.5569231 L15.8547945,33.8769231 C18.0370178,34.0810262 20.2281381,34.1755044 22.419863,34.16 C34.8472603,34.16 44.8828767,32.1169231 44.8828767,17.0830769 C44.8828767,2.04923077 34.7979452,0 22.3705479,0 Z" id="Shape" fill="#7289DA" opacity="0.552399554"></path>
                                        <ellipse id="Oval" fill="#FFFFFF" cx="13.7465753" cy="17.0830769" rx="2.69383562" ry="2.68923077"></ellipse>
                                        <ellipse id="Oval" fill="#FFFFFF" cx="22.3767123" cy="17.0830769" rx="2.69383562" ry="2.68923077"></ellipse>
                                        <ellipse id="Oval" fill="#FFFFFF" cx="31.0068493" cy="17.0830769" rx="2.69383562" ry="2.68923077"></ellipse>
                                    </g>
                                </g>
                            </g>
                            <g id="discord-logo-39d3600a80352a05" transform="translate(97.000000, 62.000000)"></g>
                        </g>
                        <path d="M216.181818,74.5 C216.181818,74.5 201.798455,63.28125 184.818182,62 L183.287636,65.053125 C198.637,68.8 205.681273,74.15625 213.045455,80.75 C200.352591,74.29375 187.829091,68.25 166,68.25 C144.170909,68.25 131.647409,74.29375 118.954545,80.75 C126.318727,74.15625 134.699091,68.2 148.712364,65.053125 L147.181818,62 C129.367273,63.671875 115.818182,74.5 115.818182,74.5 C115.818182,74.5 99.7568636,97.70625 97,143.25 C113.183636,161.853125 137.772727,162 137.772727,162 L142.916364,155.175 C134.184727,152.15 124.336545,146.753125 115.818182,137 C125.973727,144.65625 141.301136,152.625 166,152.625 C190.698864,152.625 206.026273,144.65625 216.181818,137 C207.666591,146.753125 197.818409,152.15 189.083636,155.175 L194.227273,162 C194.227273,162 218.816364,161.853125 235,143.25 C232.243136,97.70625 216.181818,74.5 216.181818,74.5 Z M145.613636,130.75 C139.547909,130.75 134.636364,125.15625 134.636364,118.25 C134.636364,111.34375 139.547909,105.75 145.613636,105.75 C151.679364,105.75 156.590909,111.34375 156.590909,118.25 C156.590909,125.15625 151.679364,130.75 145.613636,130.75 Z M186.386364,130.75 C180.320636,130.75 175.409091,125.15625 175.409091,118.25 C175.409091,111.34375 180.320636,105.75 186.386364,105.75 C192.452091,105.75 197.363636,111.34375 197.363636,118.25 C197.363636,125.15625 192.452091,130.75 186.386364,130.75 Z" id="surface1" fill="#9479EE" fill-rule="nonzero"></path>
                    </g>
                </g>
            </g>
        </g>
    </g>
</svg>