<?xml version="1.0" encoding="UTF-8"?>
<svg width="360px" height="248px" viewBox="0 0 360 248" version="1.1" xmlns="http://www.w3.org/2000/svg" xmlns:xlink="http://www.w3.org/1999/xlink">
    <!-- Generator: Sketch 50.2 (55047) - http://www.bohemiancoding.com/sketch -->
    <title>Group 22</title>
    <desc>Created with Sketch.</desc>
    <defs></defs>
    <g id="Home" stroke="none" stroke-width="1" fill="none" fill-rule="evenodd">
        <g transform="translate(-768.000000, -150.000000)" id="Group-8">
            <g transform="translate(317.000000, 150.000000)">
                <g id="Group-24">
                    <g id="Group-22" transform="translate(451.000000, 1.000000)">
                        <g id="Group-11" transform="translate(30.743802, 52.574297)">
                            <g id="Group-20">
                                <g id="react-1" transform="translate(0.000000, 3.967871)">
                                    <ellipse id="Oval" fill="#EEEEEE" fill-rule="nonzero" cx="23.6260777" cy="20.3723644" rx="4.30226816" ry="4.26562239"></ellipse>
                                    <path d="M23.6260777,11.7001539 C29.4012968,11.7001539 34.767047,12.521984 38.8119753,13.9020383 C43.6857939,15.5654337 46.6828796,18.0873103 46.6828796,20.3709548 C46.6828796,22.750456 43.5066513,25.4302141 38.2731254,27.1485861 C34.3163468,28.44829 29.1084128,29.1277447 23.6260777,29.1277447 C18.0044093,29.1277447 12.6827339,28.4905797 8.68045871,27.1344896 C3.61754498,25.4189369 0.567853901,22.7053469 0.567853901,20.3709548 C0.567853901,18.1056358 3.42987168,15.6034945 8.23544551,13.9429184 C12.2960132,12.5403096 17.7939878,11.7001539 23.6260777,11.7001539 Z" id="Shape" stroke="#EEEEEE" stroke-width="2.03993873"></path>
                                    <path d="M16.0125132,16.061633 C18.8972793,11.1010497 22.2967251,6.90309083 25.5241371,4.11901805 C29.412671,0.764034149 33.1135315,-0.54976627 35.1082712,0.590646326 C37.1868951,1.77898726 37.9418536,5.845848 36.8286098,11.2011353 C35.9869235,15.2496705 33.9793879,20.0608302 31.2396421,24.7704946 C28.4316515,29.5985702 25.2156136,33.8515057 22.0322764,36.6116143 C18.0044093,40.1033349 14.1087667,41.3663877 12.0699522,40.2006012 C10.090852,39.0686466 9.33447171,35.3612484 10.2827906,30.4034844 C11.0846674,26.2111642 13.09789,21.0701447 16.0125132,16.061633 Z" id="Shape" stroke="#EEEEEE" stroke-width="2.03993873"></path>
                                    <path d="M16.019622,24.7803622 C13.1263254,19.8240078 11.1557558,14.8084479 10.3339742,10.6457304 C9.34442408,5.63017047 10.0439336,1.79449349 12.0372515,0.651261581 C14.1144537,-0.541308327 18.0442188,0.84156529 22.1673443,4.47143233 C25.2852802,7.21603471 28.4856786,11.3435107 31.2325333,16.0489461 C34.0490545,20.8727927 36.1603791,25.7586642 36.9807389,29.870634 C38.0200508,35.075088 37.1783645,39.0517307 35.1409719,40.2203364 C33.1632934,41.3551104 29.5463171,40.1540826 25.6876404,36.8625332 C22.4289495,34.0812798 18.9413541,29.7846449 16.019622,24.7803622 Z" id="Shape" stroke="#EEEEEE" stroke-width="2.03993873"></path>
                                </g>
                                <g id="graphql" transform="translate(253.884298, 0.000000)" fill="#EEEEEE">
                                    <path d="M24.7828766,5.44970616 L34.3899446,11.0956566 C34.6673049,10.796949 34.9855957,10.5405794 35.3349607,10.3344866 C37.3273236,9.16859371 39.868699,9.86082195 41.0260107,11.8889003 C42.1714651,13.9169786 41.4913719,16.5035348 39.4988465,17.6814967 C39.152083,17.884752 38.7784067,18.0361992 38.3892891,18.1311888 L38.3892891,29.4272229 C38.7741564,29.5223721 39.1437618,29.6727854 39.4869892,29.8739391 C41.4913719,31.0519009 42.1714651,33.6386225 41.0141534,35.6667008 C39.868699,37.6946138 37.3154663,38.386842 35.3229409,37.2211145 C34.936932,36.9957033 34.5891932,36.7083614 34.2931365,36.3701714 L24.7445432,41.9814029 C24.8843833,42.412374 24.9554008,42.8633862 24.9548896,43.317253 C24.9548896,45.6488735 23.0937699,47.5556011 20.7910038,47.5556011 C18.4882377,47.5556011 16.627118,45.6609424 16.627118,43.317253 C16.627118,42.9006265 16.6859176,42.4982182 16.7955576,42.1181292 L7.19108845,36.473832 C6.91676983,36.7666157 6.60295744,37.0182263 6.25906673,37.2211145 C4.25468402,38.386842 1.71330866,37.6946138 0.567854292,35.6667008 C-0.577437645,33.6386225 0.102655581,31.0519009 2.0950185,29.8739391 C2.43824649,29.6727482 2.80784936,29.5222802 3.19271853,29.4270576 L3.19271853,18.1311888 C2.80360096,18.0361992 2.42992464,17.884752 2.08316113,17.6814967 C0.0906357823,16.5157691 -0.589457445,13.9169786 0.555996923,11.8889003 C1.70145129,9.86082195 4.25452159,9.16859371 6.24704693,10.3344866 C6.59449895,10.5394793 6.91122219,10.7942053 7.187515,11.0908621 L16.7973444,5.44342369 C16.6840628,5.05207518 16.6267324,4.64616344 16.627118,4.23818273 C16.627118,1.89465863 18.4882377,0 20.7910038,0 C23.0937699,0 24.9548896,1.89449331 24.9548896,4.23818273 C24.9548896,4.65943842 24.8947906,5.06597992 24.7828766,5.44970616 Z M23.7819846,7.18928715 L33.4119553,12.8484639 C33.1021364,13.9507952 33.2449778,15.1339022 33.8077965,16.127083 C34.3940054,17.165012 35.3489297,17.8531071 36.4087836,18.1212691 L36.4087836,29.4313561 C36.3546945,29.4447477 36.3009303,29.4594618 36.2474909,29.4750027 L23.6700706,7.30253681 C23.7080791,7.26550335 23.745438,7.22780857 23.7819846,7.18945248 L23.7819846,7.18928715 Z M17.914536,7.30501673 L5.33727809,29.4771519 C5.28289496,29.4611471 5.22819908,29.4462646 5.17322407,29.4325134 L5.17322407,18.1212691 C6.23307798,17.8531071 7.18800229,17.165012 7.77421114,16.127083 C8.33817482,15.1319518 8.48047225,13.9462263 8.16842806,12.8421814 L17.7956374,7.18465797 C17.8344581,7.22549398 17.874091,7.26566867 17.914536,7.30485141 L17.914536,7.30501673 Z M21.9544879,8.3093842 L34.528822,30.4765596 C34.2407893,30.7563045 33.9938996,31.0768685 33.7957767,31.4283527 C33.5981494,31.7777043 33.4503728,32.1539047 33.3568916,32.5456392 L8.22544089,32.5456392 C8.13183644,32.153894 7.98395138,31.7776959 7.78623093,31.4283527 C7.5874176,31.0792918 7.34099711,30.7606769 7.05432263,30.4820154 L19.6310932,8.31037617 C20.008151,8.42088462 20.3986263,8.47676369 20.7910038,8.47636546 C21.1949665,8.47636546 21.5852851,8.41817001 21.9544879,8.3093842 Z M23.8703464,40.4620388 L33.4377816,34.8395649 C33.4091023,34.7477782 33.383478,34.6550314 33.3609524,34.5614833 L8.22008071,34.5614833 C8.20676147,34.6165375 8.19230523,34.6710957 8.17687441,34.7254886 L17.7910894,40.3755723 C18.5756162,39.5452399 19.6592048,39.0769349 20.7910038,39.0790703 C21.9632233,39.0769852 23.0816988,39.5793055 23.8703464,40.4620388 Z" id="Shape"></path>
                                </g>
                            </g>
                        </g>
                        <g id="Group-2" transform="translate(104.132231, 0.000000)" fill="#EEEEEE" fill-rule="nonzero">
                            <g id="Group-17" transform="translate(115.041322, 0.000000)">
                                <g id="nodejs-icon" transform="translate(1.983471, -0.991968)">
                                    <path d="M20.9767029,0.629653365 C22.2302204,-0.0712317355 23.8629261,-0.0743975904 25.1153633,0.629653365 C31.4162604,4.10752086 37.7191381,7.57993606 44.0189549,11.0599141 C45.2038729,11.7119044 45.9964589,13.0000555 45.9843955,14.3337599 L45.9843955,35.2579502 C45.993218,36.6468811 45.1223096,37.9658115 43.8722131,38.6030277 C37.5920219,42.0617242 31.3150716,45.5246418 25.0359607,48.9833383 C23.7565157,49.6979421 22.0910407,49.6428914 20.8515672,48.8697193 C18.9687702,47.8035297 17.0827323,46.7426166 15.1997552,45.6774823 C14.8149855,45.4534101 14.3812418,45.2750669 14.1095443,44.9106419 C14.3497328,44.5944081 14.7791553,44.5550108 15.1280948,44.4169444 C15.9140189,44.1728218 16.6358448,43.7809593 17.3578507,43.4007049 C17.5404228,43.2786437 17.7633264,43.325428 17.9383363,43.4346499 C19.5483555,44.336391 21.1441507,45.2643382 22.7595714,46.157461 C23.1041897,46.3518094 23.4531292,46.0937922 23.7476932,45.9333889 C29.910491,42.5309743 36.0808509,39.1413989 42.2425683,35.737929 C42.4708734,35.6306417 42.5970894,35.3939061 42.5785441,35.1496077 C42.5828653,28.2471645 42.5796244,21.3434903 42.5807047,14.4410472 C42.6068122,14.163859 42.4426053,13.9090077 42.1860321,13.7955645 C35.9276271,10.3526973 29.6724631,6.90455368 23.4151384,3.46080706 C23.193231,3.311782 22.9003618,3.31136273 22.6780081,3.45975177 C16.4206834,6.90455368 10.1665997,10.3558632 3.90927499,13.7985545 C3.65360207,13.9121735 3.48201313,14.1628037 3.51244181,14.4410472 C3.51352211,21.3434903 3.51244181,28.2471645 3.51244181,35.1506629 C3.49021928,35.394796 3.62601299,35.6266147 3.85273886,35.7315973 C5.52253512,36.6565546 7.19449199,37.5750043 8.86536855,38.4967957 C9.80667703,38.9917243 10.9624267,39.2857971 11.9995225,38.906598 C12.9147235,38.5859673 13.5562465,37.6736734 13.5387815,36.7244446 C13.5474239,29.8622782 13.5344603,22.9990565 13.5452633,16.1379454 C13.5223968,15.8333198 13.8182212,15.5816343 14.1214277,15.6103029 C14.9237365,15.6050265 15.7271256,15.5997501 16.5294345,15.6124135 C16.86433,15.6050265 17.0947957,15.9330442 17.0533839,16.2399563 C17.050143,23.1455652 17.0620264,30.0513501 17.0479824,36.956959 C17.050143,38.797376 16.2761022,40.7999551 14.5333852,41.700465 C12.3864528,42.7868809 9.73285597,42.556477 7.61185103,41.5147348 C5.77568732,40.6195014 4.02342755,39.5629853 2.21985314,38.6039071 C0.966515666,37.9702085 0.0999285013,36.6460017 0.108751018,35.2581261 L0.108751018,14.3337599 C0.0956072688,12.9724423 0.919702314,11.6608989 2.1415308,11.0184062 C8.42064171,7.55689567 14.6986723,4.09274687 20.9767029,0.629653365 Z" id="Shape"></path>
                                    <path d="M26.4545853,15.1239924 C29.1931664,14.9518051 32.1249426,15.0219815 34.5893054,16.3398566 C36.4973096,17.3497643 37.5551113,19.4693042 37.5887809,21.5399492 C37.5354857,21.8192479 37.2366005,21.9733195 36.9636426,21.9541485 C36.169076,21.9530932 35.3743293,21.9647014 34.5797627,21.9488721 C34.2427066,21.9615355 34.0468107,21.6579652 34.0044986,21.3668824 C33.7761935,20.3761457 33.2230758,19.3949066 32.2684435,18.9170384 C30.8030055,18.200324 29.1038609,18.2363796 27.5059051,18.2513294 C26.3393524,18.3118324 25.0849346,18.4105016 24.0966328,19.0806075 C23.3378964,19.5881996 23.1074306,20.6128813 23.3782279,21.4381142 C23.6335407,22.0306567 24.3337604,22.2218391 24.9066838,22.3980717 C28.2070251,23.2412444 31.7043426,23.1573493 34.9416659,24.2669814 C36.2819682,24.7193469 37.5931022,25.598751 38.051873,26.9695662 C38.6519842,28.8068173 38.3889292,31.0028654 37.0507875,32.477802 C35.965618,33.6915556 34.3851272,34.352164 32.8087776,34.7109609 C30.7117195,35.1677234 28.5354388,35.1793315 26.4057914,34.9765409 C24.4032602,34.753524 22.3193458,34.2396002 20.7734249,32.9067753 C19.4514879,31.785535 18.8058237,30.0385108 18.869922,28.3523413 C18.8852264,28.0675902 19.1754692,27.8690208 19.4547288,27.8924129 C20.254877,27.8860812 21.0550252,27.8839706 21.8551735,27.8934682 C22.1747646,27.8711313 22.4117122,28.1409325 22.4280969,28.4351812 C22.575739,29.3791336 22.9389026,30.3698703 23.7815429,30.9295231 C25.4077667,31.9543806 27.4482887,31.8842042 29.3103798,31.9128728 C30.8530598,31.8460381 32.5847937,31.8258118 33.8437128,30.8297986 C34.5079222,30.2617036 34.7047184,29.3112436 34.5252072,28.4935736 C34.3307517,27.8032413 33.5914608,27.4815553 32.9565998,27.2712018 C29.6985705,26.26446 26.1621819,26.6297644 22.9356616,25.4912878 C21.625788,25.0390982 20.3591268,24.1841415 19.8558832,22.8696082 C19.1536829,21.0091408 19.4754347,18.7079161 20.9538364,17.2827537 C22.3953275,15.8651542 24.476181,15.3192201 26.4545853,15.1238165 L26.4545853,15.1239924 Z" id="Shape"></path>
                                </g>
                            </g>
                            <g id="Group-18" transform="translate(0.000000, 7.935743)">
                                <path d="M0.0524739017,26.5472745 L5.48467268,23.3970679 C6.5328458,25.1775617 7.48618421,26.6841129 9.77303175,26.6841129 C11.9650446,26.6841129 13.3473575,25.8625509 13.3473575,22.666643 L13.3473575,0.932449799 L20.0182308,0.932449799 L20.0182308,22.7569829 C20.0182308,29.3775714 15.9680676,32.3912052 10.0589224,32.3912052 C4.72239017,32.3912052 1.62473358,29.7429167 0.0521966072,26.546743 M23.6416377,25.8622852 L29.0732819,22.8489171 C30.5032895,25.0864246 32.3617171,26.73008 35.6493204,26.73008 C38.413669,26.73008 40.1761527,25.4058029 40.1761527,23.579342 C40.1761527,21.3878016 38.3654197,20.6114096 35.3157351,19.3333652 L33.6483634,18.6478446 C28.8353632,16.6850767 25.6428719,14.219328 25.6428719,9.01415376 C25.6428719,4.21976047 29.4548391,0.566838784 35.4114017,0.566838784 C39.6523434,0.566838784 42.7020281,1.98251865 44.8937636,5.680876 L39.6994835,8.87731533 C38.5556438,6.91401606 37.3172466,6.13788977 35.4111244,6.13788977 C33.4573075,6.13788977 32.2183558,7.32506275 32.2183558,8.87731533 C32.2183558,10.7949132 33.4573075,11.5715709 36.3162136,12.7587439 L37.9838625,13.4434674 C43.6545346,15.7723777 46.8470259,18.146458 46.8470259,23.488205 C46.8470259,29.2417958 42.1296923,32.3920023 35.792127,32.3920023 C29.5976457,32.3920023 25.5949,29.561174 23.6413604,25.8625509" id="Shape"></path>
                            </g>
                        </g>
                        <g id="Group-9" transform="translate(0.000000, 120.028112)" fill="#EEEEEE" fill-rule="nonzero">
                            <g id="redux" transform="translate(319.338843, 3.967871)">
                                <path d="M27.9427975,27.6015873 C29.4309817,27.4425472 30.559998,26.1181888 30.5086433,24.5287636 C30.4574461,22.939501 29.1743657,21.6679933 27.6348267,21.6679933 L27.5322748,21.6679933 C25.9412236,21.7210066 24.7096554,23.0983784 24.7610102,24.7406544 C24.8123649,25.535367 25.1201781,26.2240529 25.5820556,26.700848 C23.8372553,30.2504668 21.1687001,32.8463329 17.1658673,35.0184173 C14.4459573,36.5018158 11.6234955,37.0316242 8.80103367,36.6608559 C6.49164647,36.3429383 4.69549143,35.2834841 3.56631766,33.5350188 C1.92422679,30.9391527 1.77032015,28.1312331 3.15595247,25.3234762 C4.13106207,23.3102693 5.6704435,21.8268708 6.64555311,21.0851715 C6.44029175,20.3964856 6.13232094,19.2310047 5.97841431,18.3834413 C-1.46282194,23.9461044 -0.692973691,31.4689611 1.56505879,35.0184173 C3.25850439,37.6674593 6.69690783,39.3097353 10.4944793,39.3097353 C11.5207861,39.3097353 12.5470929,39.2037086 13.5735572,38.938967 C20.1423933,37.614446 25.1203357,33.5880321 27.9427975,27.6015873 Z M36.9749274,21.0323208 C33.0746466,16.317221 27.3270134,13.7213549 20.7581774,13.7213549 L19.9371319,13.7213549 C19.4752545,12.7677648 18.5001449,12.1319297 17.4224834,12.1319297 L17.3197739,12.1319297 C15.7290378,12.1849431 14.4974696,13.5623148 14.5486668,15.2047534 C14.6000215,16.7940161 15.8829444,18.0655237 17.4224834,18.0655237 L17.5250353,18.0655237 C18.6540515,18.0125104 19.6291611,17.2708111 20.0396838,16.2642077 L20.9634387,16.2642077 C24.8637196,16.2642077 28.5585816,17.4296886 31.8944331,19.7077997 C34.4602789,21.4561024 36.3077886,23.7342136 37.3340954,26.4889571 C38.2064956,28.7140549 38.1551409,30.8861393 37.231386,32.7404688 C35.7945565,35.5482257 33.3826174,37.0846376 30.20083,37.0846376 C28.1480589,37.0846376 26.1979972,36.4488024 25.1715329,35.9720074 C24.6071035,36.5018158 23.5806392,37.3493792 22.8621457,37.8793502 C25.068981,38.9388044 27.3270134,39.5216262 29.4823365,39.5216262 C34.4089242,39.5216262 38.052589,36.7137066 39.4382213,33.9059497 C40.9264055,30.8331259 40.8236961,25.535367 36.9749274,21.0323208 Z M10.905002,28.5020014 C10.9563567,30.0914267 12.2392796,31.3627717 13.7788185,31.3627717 L13.881528,31.3627717 C15.4724217,31.309921 16.7039898,29.9323866 16.6526351,28.2901106 C16.6014379,26.7006854 15.3183575,25.4293403 13.7788185,25.4293403 L13.6762666,25.4293403 C13.5735572,25.4293403 13.419493,25.4293403 13.3170986,25.4821911 C11.2129728,21.8797215 10.3405726,17.959497 10.6485434,13.7211923 C10.8536473,10.5425044 11.8801116,7.78759826 13.6762666,5.50948713 C15.1644509,3.54929357 18.0382674,2.59570347 19.9884866,2.54285272 C25.428149,2.43682599 27.7373786,9.42987425 27.8914428,12.2377938 C28.5585816,12.3966713 29.6875978,12.7676022 30.4574461,13.0325064 C29.8415045,4.45019554 24.7096554,0 19.7832253,0 C15.1644509,0 10.905002,3.44359207 9.21139886,8.52946014 C6.85081447,15.3106176 8.39035343,21.8268708 11.26417,26.9657522 C11.0077114,27.3365205 10.8536473,27.9193423 10.905002,28.5021641 L10.905002,28.5020014 Z" id="Shape"></path>
                            </g>
                            <g id="git-icon-(1)">
                                <path d="M46.7056284,21.6861375 L25.9215382,0.897949078 C24.7253169,-0.299316359 22.7839908,-0.299316359 21.5862818,0.897949078 L17.2703643,5.21494936 L22.745313,10.6912716 C24.0175882,10.2612456 25.476558,10.5497276 26.4907336,11.5641575 C27.5097438,12.5850974 27.796108,14.056895 27.3557766,15.3335814 L32.6321299,20.6114444 C33.9086819,20.1715605 35.381598,20.4561365 36.4011661,21.4776344 C37.8261069,22.9023747 37.8261069,25.2115327 36.4011661,26.637203 C34.9758534,28.0630593 32.6672745,28.0630593 31.241218,26.637203 C30.1693978,25.5639979 29.9046039,23.9895296 30.4472082,22.6687619 L25.5265788,17.746898 L25.5260209,30.6992008 C25.882726,30.8756165 26.2085142,31.1086499 26.4907336,31.3892513 C27.9156744,32.8139916 27.9156744,35.1233356 26.4907336,36.5501219 C25.0654209,37.9752342 22.7557263,37.9752342 21.332459,36.5501219 C19.9075182,35.1233356 19.9075182,32.8141776 21.332459,31.3894373 C21.6739368,31.0477015 22.0797553,30.7770669 22.526449,30.5931823 L22.526449,17.5201671 C22.0791053,17.3375058 21.6730578,17.0667185 21.332459,16.7239122 C20.2528288,15.6454991 19.9932415,14.060987 20.5464451,12.7350113 L15.1494098,7.33606402 L0.89814225,21.5899768 C-0.29938075,22.7883583 -0.29938075,24.7303574 0.89814225,25.9278088 L21.6826043,46.7163693 C22.8791976,47.9138207 24.8201518,47.9138207 26.0182326,46.7163693 L46.7054425,26.0243415 C47.9025936,24.8265181 47.9025936,22.8834029 46.7054425,21.6861375" id="Shape"></path>
                            </g>
                        </g>
                        <g id="Designer" transform="translate(61.487603, 51.582329)">
                            <path d="M227.180173,161.927733 C232.987076,148.10264 236.2066,132.936554 236.2066,117.024654 C236.2066,52.5430686 183.554894,0.273709653 118.598433,0.273709653 C53.6456471,0.273709653 0.990265435,52.5430686 0.990265435,117.024654 C0.990265435,132.936554 4.20978901,148.10264 10.0203675,161.927733 L227.180173,161.927733 Z" id="Fill-1" fill="#9D85ED"></path>
                            <path d="M204.656004,163.764711 C211.774973,150.343753 215.850831,135.082143 215.850831,118.861632 C215.850831,65.5415216 172.310083,22.3174401 118.599903,22.3174401 C64.8897229,22.3174401 21.3489742,65.5415216 21.3489742,118.861632 C21.3489742,135.082143 25.421157,150.343753 32.5438017,163.764711 L204.656004,163.764711 Z" id="Fill-4" fill="#8972D8"></path>
                            <path d="M23.0432669,161.927733 L15.6927564,161.927733" id="Stroke-7" stroke="#504B46" stroke-width="3.67309458" stroke-linecap="round"></path>
                            <path d="M221.507049,161.927733 L214.156539,161.927733" id="Stroke-8" stroke="#504B46" stroke-width="3.67309458" stroke-linecap="round"></path>
                            <path d="M30.3937773,161.927733 L206.806028,161.927733" id="Stroke-9" stroke="#504B46" stroke-width="3.67309458" stroke-linecap="round"></path>
                            <path d="M133.07122,97.6335193 L111.019689,97.6335193 C90.7212543,97.6335193 74.2671366,114.081816 74.2671366,134.37307 L74.2671366,136.210048 L92.6434127,136.210048 L92.6434127,161.927733 L151.447496,161.927733 L151.447496,136.210048 L169.823772,136.210048 L169.823772,134.37307 C169.823772,114.081816 153.369655,97.6335193 133.07122,97.6335193" id="Fill-10" fill="#44B2D6"></path>
                            <path d="M169.417657,129.204917 C169.3221,128.517888 169.237569,127.82351 169.10526,127.147503 C168.983977,127.389984 168.903121,127.654508 168.903121,127.944751 C168.903121,128.433387 169.10526,128.874261 169.417657,129.204917" id="Fill-12" fill="#FFFFFF"></path>
                            <path d="M161.554448,116.921783 C160.540078,116.921783 159.716821,117.744749 159.716821,118.758761 C159.716821,119.772773 160.540078,120.595739 161.554448,120.595739 C162.568819,120.595739 163.392076,119.772773 163.392076,118.758761 C163.392076,117.744749 162.568819,116.921783 161.554448,116.921783" id="Fill-14" fill="#FFFFFF"></path>
                            <path d="M161.554448,135.291559 C160.878201,135.291559 160.315887,135.67365 159.99614,136.213722 L163.112756,136.213722 C162.793009,135.67365 162.230695,135.291559 161.554448,135.291559" id="Fill-16" fill="#FFFFFF"></path>
                            <path d="M141.340544,100.388986 C141.340544,101.402997 142.163802,102.225963 143.178172,102.225963 C144.192543,102.225963 145.0158,101.402997 145.0158,100.388986 C145.0158,100.098743 144.934944,99.8305444 144.813661,99.5880634 C143.972027,99.3051688 143.115693,99.0626878 142.248333,98.8385765 C141.715421,99.1618846 141.340544,99.7203257 141.340544,100.388986" id="Fill-18" fill="#FFFFFF"></path>
                            <path d="M152.36631,111.410851 C153.380681,111.410851 154.203938,110.587885 154.203938,109.573873 C154.203938,108.559862 153.380681,107.736896 152.36631,107.736896 C151.35194,107.736896 150.528683,108.559862 150.528683,109.573873 C150.528683,110.587885 151.35194,111.410851 152.36631,111.410851" id="Fill-20" fill="#FFFFFF"></path>
                            <path d="M143.178172,120.595739 C144.192543,120.595739 145.0158,119.772773 145.0158,118.758761 C145.0158,117.744749 144.192543,116.921783 143.178172,116.921783 C142.163802,116.921783 141.340544,117.744749 141.340544,118.758761 C141.340544,119.772773 142.163802,120.595739 143.178172,120.595739" id="Fill-22" fill="#FFFFFF"></path>
                            <path d="M152.36631,129.780626 C153.380681,129.780626 154.203938,128.95766 154.203938,127.943649 C154.203938,126.929637 153.380681,126.106671 152.36631,126.106671 C151.35194,126.106671 150.528683,126.929637 150.528683,127.943649 C150.528683,128.95766 151.35194,129.780626 152.36631,129.780626" id="Fill-24" fill="#FFFFFF"></path>
                            <path d="M143.178172,138.965514 C144.192543,138.965514 145.0158,138.142548 145.0158,137.128536 C145.0158,136.114525 144.192543,135.291559 143.178172,135.291559 C142.163802,135.291559 141.340544,136.114525 141.340544,137.128536 C141.340544,138.142548 142.163802,138.965514 143.178172,138.965514" id="Fill-26" fill="#FFFFFF"></path>
                            <path d="M150.528683,146.313424 C150.528683,146.985758 150.907234,147.547873 151.447496,147.867507 L151.447496,144.759341 C150.907234,145.078975 150.528683,145.64109 150.528683,146.313424" id="Fill-28" fill="#FFFFFF"></path>
                            <path d="M143.178172,153.661334 C142.163802,153.661334 141.340544,154.4843 141.340544,155.498312 C141.340544,156.512323 142.163802,157.335289 143.178172,157.335289 C144.192543,157.335289 145.0158,156.512323 145.0158,155.498312 C145.0158,154.4843 144.192543,153.661334 143.178172,153.661334" id="Fill-30" fill="#FFFFFF"></path>
                            <path d="M124.801896,102.225963 C125.816266,102.225963 126.639524,101.402997 126.639524,100.388986 C126.639524,99.374974 125.816266,98.552008 124.801896,98.552008 C123.787526,98.552008 122.964268,99.374974 122.964268,100.388986 C122.964268,101.402997 123.787526,102.225963 124.801896,102.225963" id="Fill-32" fill="#FFFFFF"></path>
                            <path d="M133.990034,111.410851 C135.004404,111.410851 135.827662,110.587885 135.827662,109.573873 C135.827662,108.559862 135.004404,107.736896 133.990034,107.736896 C132.975664,107.736896 132.152406,108.559862 132.152406,109.573873 C132.152406,110.587885 132.975664,111.410851 133.990034,111.410851" id="Fill-34" fill="#FFFFFF"></path>
                            <path d="M124.801896,120.595739 C125.816266,120.595739 126.639524,119.772773 126.639524,118.758761 C126.639524,117.744749 125.816266,116.921783 124.801896,116.921783 C123.787526,116.921783 122.964268,117.744749 122.964268,118.758761 C122.964268,119.772773 123.787526,120.595739 124.801896,120.595739" id="Fill-36" fill="#FFFFFF"></path>
                            <path d="M133.990034,129.780626 C135.004404,129.780626 135.827662,128.95766 135.827662,127.943649 C135.827662,126.929637 135.004404,126.106671 133.990034,126.106671 C132.975664,126.106671 132.152406,126.929637 132.152406,127.943649 C132.152406,128.95766 132.975664,129.780626 133.990034,129.780626" id="Fill-38" fill="#FFFFFF"></path>
                            <path d="M124.801896,135.291559 C123.787526,135.291559 122.964268,136.114525 122.964268,137.128536 C122.964268,138.142548 123.787526,138.965514 124.801896,138.965514 C125.816266,138.965514 126.639524,138.142548 126.639524,137.128536 C126.639524,136.114525 125.816266,135.291559 124.801896,135.291559" id="Fill-40" fill="#FFFFFF"></path>
                            <path d="M133.990034,144.476447 C132.975664,144.476447 132.152406,145.299412 132.152406,146.313424 C132.152406,147.327436 132.975664,148.150402 133.990034,148.150402 C135.004404,148.150402 135.827662,147.327436 135.827662,146.313424 C135.827662,145.299412 135.004404,144.476447 133.990034,144.476447" id="Fill-42" fill="#FFFFFF"></path>
                            <path d="M124.801896,153.661334 C123.787526,153.661334 122.964268,154.4843 122.964268,155.498312 C122.964268,156.512323 123.787526,157.335289 124.801896,157.335289 C125.816266,157.335289 126.639524,156.512323 126.639524,155.498312 C126.639524,154.4843 125.816266,153.661334 124.801896,153.661334" id="Fill-44" fill="#FFFFFF"></path>
                            <path d="M106.42562,102.225963 C107.43999,102.225963 108.263247,101.402997 108.263247,100.388986 C108.263247,99.374974 107.43999,98.552008 106.42562,98.552008 C105.411249,98.552008 104.587992,99.374974 104.587992,100.388986 C104.587992,101.402997 105.411249,102.225963 106.42562,102.225963" id="Fill-46" fill="#FFFFFF"></path>
                            <path d="M115.613758,111.410851 C116.628128,111.410851 117.451386,110.587885 117.451386,109.573873 C117.451386,108.559862 116.628128,107.736896 115.613758,107.736896 C114.599387,107.736896 113.77613,108.559862 113.77613,109.573873 C113.77613,110.587885 114.599387,111.410851 115.613758,111.410851" id="Fill-48" fill="#FFFFFF"></path>
                            <path d="M106.42562,116.921783 C105.411249,116.921783 104.587992,117.744749 104.587992,118.758761 C104.587992,119.772773 105.411249,120.595739 106.42562,120.595739 C107.43999,120.595739 108.263247,119.772773 108.263247,118.758761 C108.263247,117.744749 107.43999,116.921783 106.42562,116.921783" id="Fill-50" fill="#FFFFFF"></path>
                            <path d="M115.613758,126.106671 C114.599387,126.106671 113.77613,126.929637 113.77613,127.943649 C113.77613,128.95766 114.599387,129.780626 115.613758,129.780626 C116.628128,129.780626 117.451386,128.95766 117.451386,127.943649 C117.451386,126.929637 116.628128,126.106671 115.613758,126.106671" id="Fill-52" fill="#FFFFFF"></path>
                            <path d="M106.42562,135.291559 C105.411249,135.291559 104.587992,136.114525 104.587992,137.128536 C104.587992,138.142548 105.411249,138.965514 106.42562,138.965514 C107.43999,138.965514 108.263247,138.142548 108.263247,137.128536 C108.263247,136.114525 107.43999,135.291559 106.42562,135.291559" id="Fill-54" fill="#FFFFFF"></path>
                            <path d="M115.613758,144.476447 C114.599387,144.476447 113.77613,145.299412 113.77613,146.313424 C113.77613,147.327436 114.599387,148.150402 115.613758,148.150402 C116.628128,148.150402 117.451386,147.327436 117.451386,146.313424 C117.451386,145.299412 116.628128,144.476447 115.613758,144.476447" id="Fill-56" fill="#FFFFFF"></path>
                            <path d="M106.42562,153.661334 C105.411249,153.661334 104.587992,154.4843 104.587992,155.498312 C104.587992,156.512323 105.411249,157.335289 106.42562,157.335289 C107.43999,157.335289 108.263247,156.512323 108.263247,155.498312 C108.263247,154.4843 107.43999,153.661334 106.42562,153.661334" id="Fill-58" fill="#FFFFFF"></path>
                            <path d="M97.2374818,107.736896 C96.2231113,107.736896 95.3998542,108.559862 95.3998542,109.573873 C95.3998542,110.587885 96.2231113,111.410851 97.2374818,111.410851 C98.2518522,111.410851 99.0751094,110.587885 99.0751094,109.573873 C99.0751094,108.559862 98.2518522,107.736896 97.2374818,107.736896" id="Fill-60" fill="#FFFFFF"></path>
                            <path d="M88.0493437,120.595739 C89.0637141,120.595739 89.8869713,119.772773 89.8869713,118.758761 C89.8869713,117.744749 89.0637141,116.921783 88.0493437,116.921783 C87.0349733,116.921783 86.2117161,117.744749 86.2117161,118.758761 C86.2117161,119.772773 87.0349733,120.595739 88.0493437,120.595739" id="Fill-62" fill="#FFFFFF"></path>
                            <path d="M97.2374818,126.106671 C96.2231113,126.106671 95.3998542,126.929637 95.3998542,127.943649 C95.3998542,128.95766 96.2231113,129.780626 97.2374818,129.780626 C98.2518522,129.780626 99.0751094,128.95766 99.0751094,127.943649 C99.0751094,126.929637 98.2518522,126.106671 97.2374818,126.106671" id="Fill-64" fill="#FFFFFF"></path>
                            <path d="M88.0493437,135.291559 C87.3730967,135.291559 86.8107827,135.67365 86.4910355,136.213722 L89.6076519,136.213722 C89.2879047,135.67365 88.7255907,135.291559 88.0493437,135.291559" id="Fill-66" fill="#FFFFFF"></path>
                            <path d="M97.2374818,144.476447 C96.2231113,144.476447 95.3998542,145.299412 95.3998542,146.313424 C95.3998542,147.327436 96.2231113,148.150402 97.2374818,148.150402 C98.2518522,148.150402 99.0751094,147.327436 99.0751094,146.313424 C99.0751094,145.299412 98.2518522,144.476447 97.2374818,144.476447" id="Fill-68" fill="#FFFFFF"></path>
                            <path d="M78.8612056,126.106671 C77.8468352,126.106671 77.023578,126.929637 77.023578,127.943649 C77.023578,128.95766 77.8468352,129.780626 78.8612056,129.780626 C79.8755761,129.780626 80.6988333,128.95766 80.6988333,127.943649 C80.6988333,126.929637 79.8755761,126.106671 78.8612056,126.106671" id="Fill-70" fill="#FFFFFF"></path>
                            <path d="M169.823772,134.377479 C169.823772,114.086225 153.369655,97.637928 133.07122,97.637928 L111.019689,97.637928 C90.7212543,97.637928 74.2671366,114.086225 74.2671366,134.377479 L74.2671366,138.051434 C74.2671366,117.76018 90.7212543,112.333748 111.019689,112.333748 L133.07122,112.333748 C153.369655,112.333748 169.823772,117.76018 169.823772,138.051434 L169.823772,134.377479 Z" id="Fill-72" fill-opacity="0.2" fill="#FFFFFF"></path>
                            <polyline id="Stroke-74" stroke="#504B46" stroke-width="3.67309458" stroke-linecap="round" stroke-linejoin="round" points="92.6434127 132.540501 92.6434127 161.932142 151.447496 161.932142 151.447496 132.540501"></polyline>
                            <path d="M151.447496,136.214456 L151.447496,136.214456 L169.823772,136.214456 L169.823772,134.377479 C169.823772,114.086225 153.369655,97.637928 133.07122,97.637928 L111.019689,97.637928 C90.7212543,97.637928 74.2671366,114.086225 74.2671366,134.377479 L74.2671366,136.214456 L92.6434127,136.214456" id="Stroke-76" stroke="#504B46" stroke-width="3.67309458" stroke-linecap="round" stroke-linejoin="round"></path>
                            <path d="M92.6434127,139.888411 L92.6434127,136.214456" id="Fill-78" fill="#EDF2F4"></path>
                            <path d="M92.6434127,139.888411 L92.6434127,136.214456" id="Stroke-80" stroke="#504B46" stroke-width="3.67309458" stroke-linecap="round" stroke-linejoin="round"></path>
                            <path d="M122.275158,139.884003 L122.275158,160.090756" id="Fill-82" fill="#FFD183"></path>
                            <path d="M122.275158,139.884003 L122.275158,160.090756" id="Stroke-84" stroke="#504A45" stroke-width="3.67309458" stroke-linecap="round" stroke-linejoin="round"></path>
                            <path d="M201.063442,169.275643 L195.550559,169.275643 L191.875304,169.275643 L187.968508,169.275643 C178.427545,169.275643 169.592231,165.939692 169.592231,141.724654 L169.592231,136.213722 L154.891211,136.213722 L154.891211,141.724654 C154.891211,176.641923 172.881585,183.971464 187.968508,183.971464 L191.875304,183.971464 L195.550559,183.971464 L201.063442,183.971464 C205.124599,183.971464 208.413952,180.6796 208.413952,176.623553 C208.413952,172.563833 205.124599,169.275643 201.063442,169.275643" id="Fill-86" fill="#FFD4C3"></path>
                            <path d="M201.063442,169.275643 L195.550559,169.275643 L191.875304,169.275643 L187.968508,169.275643 C178.427545,169.275643 169.592231,165.939692 169.592231,141.724654 L169.592231,136.213722 L154.891211,136.213722 L154.891211,141.724654 C154.891211,176.641923 172.881585,183.971464 187.968508,183.971464 L191.875304,183.971464 L195.550559,183.971464 L201.063442,183.971464 C205.124599,183.971464 208.413952,180.6796 208.413952,176.623553 C208.413952,172.563833 205.124599,169.275643 201.063442,169.275643 L201.063442,169.275643 Z" id="Stroke-88" stroke="#504A45" stroke-width="3.67309458"></path>
                            <path d="M133.07122,100.924281 C133.07122,104.609258 131.229917,108.051754 128.161079,110.094473 C124.456422,112.563371 119.634487,112.563371 115.92983,110.094473 C112.860992,108.051754 111.019689,104.609258 111.019689,100.924281 L111.019689,84.7809222 L133.07122,84.7809222 L133.07122,100.924281 Z" id="Fill-90" fill="#FFDFD1"></path>
                            <path d="M111.019689,97.24408 C111.299008,97.3689945 111.559951,97.5086048 111.853972,97.6224974 C118.024725,100.091395 126.066184,100.091395 132.236937,97.6224974 C132.530958,97.5086048 132.791901,97.3689945 133.07122,97.24408 L133.07122,84.7783504 L111.019689,84.7783504 L111.019689,97.24408 Z" id="Fill-92" fill="#FFCAB3"></path>
                            <path d="M133.07122,100.924281 C133.07122,104.609258 131.229917,108.051754 128.161079,110.094473 C124.456422,112.563371 119.634487,112.563371 115.92983,110.094473 C112.860992,108.051754 111.019689,104.609258 111.019689,100.924281 L111.019689,84.7809222 L133.07122,84.7809222 L133.07122,100.924281 L133.07122,100.924281 Z" id="Stroke-94" stroke="#504B46" stroke-width="3.67309458" stroke-linecap="round" stroke-linejoin="round"></path>
                            <path d="M158.798007,57.2244221 C158.798007,53.80397 156.449519,50.9566548 153.285124,50.1373628 L153.285124,48.0395344 C153.285124,31.8080009 138.282732,18.6478938 122.045455,18.6478938 C105.808177,18.6478938 90.8057851,31.8080009 90.8057851,48.0395344 L90.8057851,50.1373628 C87.6413904,50.9566548 85.2929023,53.80397 85.2929023,57.2244221 C85.2929023,60.674266 87.6781429,63.5472988 90.8866407,64.3371992 C91.7245989,79.8192459 106.348439,92.1269954 122.045455,92.1269954 C137.74247,92.1269954 152.36631,79.8192459 153.204268,64.3371992 C156.412766,63.5472988 158.798007,60.674266 158.798007,57.2244221" id="Fill-96" fill="#FFD4C3"></path>
                            <path d="M158.798007,57.2244221 C158.798007,53.80397 156.449519,50.9566548 153.285124,50.1373628 L153.285124,48.0395344 C153.285124,31.8080009 138.282732,18.6478938 122.045455,18.6478938 C105.808177,18.6478938 90.8057851,31.8080009 90.8057851,48.0395344 L90.8057851,50.1373628 C87.6413904,50.9566548 85.2929023,53.80397 85.2929023,57.2244221 C85.2929023,60.674266 87.6781429,63.5472988 90.8866407,64.3371992 C91.7245989,79.8192459 106.348439,92.1269954 122.045455,92.1269954 C137.74247,92.1269954 152.36631,79.8192459 153.204268,64.3371992 C156.412766,63.5472988 158.798007,60.674266 158.798007,57.2244221 L158.798007,57.2244221 Z" id="Stroke-98" stroke="#504A45" stroke-width="3.67309458"></path>
                            <path d="M116.532572,59.0613997 C115.396918,56.904788 113.40493,55.3874446 111.019689,55.3874446 C108.634448,55.3874446 106.64246,56.904788 105.506806,59.0613997" id="Stroke-100" stroke="#504B46" stroke-width="3.67309458" stroke-linecap="round" stroke-linejoin="round"></path>
                            <path d="M138.584103,59.0613997 C137.448449,56.904788 135.456461,55.3874446 133.07122,55.3874446 C130.68598,55.3874446 128.693991,56.904788 127.558337,59.0613997" id="Stroke-102" stroke="#504B46" stroke-width="3.67309458" stroke-linecap="round" stroke-linejoin="round"></path>
                            <path d="M124.112786,44.3611706 C134.521108,44.3611706 143.981215,41.8371635 151.147963,37.7260077 C146.469363,26.5902499 134.646067,18.647159 122.047292,18.647159 C110.227671,18.647159 99.0953233,25.6350216 93.8948371,35.6869627 C101.300476,40.9958278 112.076325,44.3611706 124.112786,44.3611706" id="Fill-104" fill="#F9BEAA"></path>
                            <path d="M147.159576,33.9513863 C147.269834,37.6400372 156.097797,88.2450945 122.274423,90.2841395 C89.2081517,92.2827711 95.0150549,33.3378358 100.222892,33.3378358 C109.41103,35.1748133 128.004146,39.6717343 147.773344,31.5008582 C159.026975,-14.4235802 78.9284628,-4.53329317 81.6187496,33.3378358 C89.1971259,29.6638807 90.8068877,35.1748133 90.8068877,40.6857459 C90.8068877,58.2472512 91.7257015,69.6181422 90.8068877,75.5883192 C84.661861,115.498493 111.862425,117.533864 122.583144,138.964044 C134.527724,116.310437 162.55522,106.644261 153.286227,74.210586 C151.908006,69.390357 156.729941,33.9513863 147.159576,33.9513863" id="Fill-106" fill="#FFD183"></path>
                            <path d="M153.707411,91.7573955 C153.582452,91.7537216 153.461169,91.7316778 153.33621,91.7243299 C153.718437,91.8639402 154.104338,92.0145724 154.475539,92.1358129 C154.497591,92.0145724 154.508616,91.8859839 154.530668,91.7647434 C154.251349,91.7573955 153.994081,91.7684174 153.707411,91.7573955" id="Fill-108" fill="#FFC258"></path>
                            <path d="M90.1166748,91.7610695 C90.1277005,91.8529183 90.1424016,91.9374193 90.1534273,92.0255942 C90.4253962,91.9337454 90.7083909,91.8272007 90.984035,91.7243299 C90.8627516,91.7316778 90.7414682,91.7537216 90.6165095,91.7573955 C90.4437725,91.7647434 90.2857365,91.7573955 90.1166748,91.7610695" id="Fill-110" fill="#FFC258"></path>
                            <path d="M119.838096,89.9303376 C115.905573,89.816445 112.568441,88.7914116 109.760546,87.0756746 C104.27339,89.7319441 97.8159669,91.3815499 90.9873427,91.7232277 C90.7080233,91.8260985 90.4250287,91.9326432 90.1530598,92.028166 C90.5793894,95.6323159 91.3916208,98.8066131 92.5015479,101.642906 C103.644922,100.761157 113.704095,96.4626298 119.838096,89.9303376" id="Fill-112" fill="#FFC258"></path>
                            <path d="M153.33768,91.7243299 C146.13418,91.3606084 139.36436,89.5309787 133.697116,86.6101844 C131.050932,88.1495716 127.937991,89.2223665 124.288463,89.6889588 C130.290155,96.2322728 140.176591,100.58591 151.206032,101.588899 C152.705536,98.668105 153.848541,95.5525911 154.473334,92.1358129 C154.105808,92.0145724 153.716231,91.8639402 153.33768,91.7243299" id="Fill-114" fill="#FFC258"></path>
                            <path d="M88.8365834,33.7140488 C97.9953194,13.4632084 133.740852,6.47901978 148.000842,20.4327012 C145.248076,-13.0994868 78.4356111,-1.90494571 80.8943568,32.7477986 C85.2127817,30.6573182 87.5869966,31.5464153 88.8365834,33.7140488" id="Fill-116" fill="#FFEDD8"></path>
                            <path d="M147.159576,33.9513863 C147.269834,37.6400372 156.097797,88.2450945 122.274423,90.2841395 C89.2081517,92.2827711 95.0150549,33.3378358 100.222892,33.3378358 C109.41103,35.1748133 128.004146,39.6717343 147.773344,31.5008582 C159.026975,-14.4235802 78.9284628,-4.53329317 81.6187496,33.3378358 C89.1971259,29.6638807 90.8068877,35.1748133 90.8068877,40.6857459 C90.8068877,58.2472512 91.7257015,69.6181422 90.8068877,75.5883192 C84.661861,115.498493 111.862425,117.533864 122.583144,138.964044 C134.527724,116.310437 163.393178,106.129908 152.367413,73.5235564 C150.761326,68.7731325 160.636737,33.9513863 147.159576,33.9513863 L147.159576,33.9513863 Z" id="Stroke-118" stroke="#504A45" stroke-width="3.67309458" stroke-linecap="round" stroke-linejoin="round"></path>
                            <path d="M159.640375,75.8958292 C164.693851,73.8310665 167.755339,82.2480976 161.323642,83.3980455 C151.779004,85.1027607 130.234658,66.916683 122.274055,71.9169359 C114.317128,66.916683 92.7727817,85.1027607 83.2244686,83.3980455 C76.792772,82.2480976 79.8579349,73.8310665 84.9114108,75.8958292 C71.7392961,65.2560553 66.4138512,93.17444 90.7293398,92.1236888 C104.177099,91.5432039 116.301766,85.9220527 122.274055,77.4278685 C128.246345,85.9220527 140.374687,91.5432039 153.822446,92.1236888 C178.137935,93.17444 172.808815,65.2560553 159.640375,75.8958292" id="Fill-120" fill="#FFD183"></path>
                            <path d="M159.640375,75.8958292 C164.693851,73.8310665 167.755339,82.2480976 161.323642,83.3980455 C151.779004,85.1027607 130.234658,66.916683 122.274055,71.9169359 C114.317128,66.916683 92.7727817,85.1027607 83.2244686,83.3980455 C76.792772,82.2480976 79.8579349,73.8310665 84.9114108,75.8958292 C71.7392961,65.2560553 66.4138512,93.17444 90.7293398,92.1236888 C104.177099,91.5432039 116.301766,85.9220527 122.274055,77.4278685 C128.246345,85.9220527 140.374687,91.5432039 153.822446,92.1236888 C178.137935,93.17444 172.808815,65.2560553 159.640375,75.8958292 L159.640375,75.8958292 Z" id="Stroke-122" stroke="#504A45" stroke-width="3.67309458" stroke-linecap="round" stroke-linejoin="round"></path>
                            <path d="M131.463296,176.623553 C131.463296,172.563833 128.173943,169.275643 124.112786,169.275643 L118.599903,169.275643 L114.924648,169.275643 L111.021526,169.275643 C101.476889,169.275643 92.6452504,165.939692 92.6452504,141.724654 L92.6452504,136.213722 L77.9442295,136.213722 L77.9442295,141.724654 C77.9442295,176.641923 95.9309285,183.971464 111.021526,183.971464 L114.924648,183.971464 L118.599903,183.971464 L124.112786,183.971464 C128.173943,183.971464 131.463296,180.6796 131.463296,176.623553" id="Fill-124" fill="#FFD4C3"></path>
                            <path d="M131.463296,176.623553 C131.463296,172.563833 128.173943,169.275643 124.112786,169.275643 L118.599903,169.275643 L114.924648,169.275643 L111.021526,169.275643 C101.476889,169.275643 92.6452504,165.939692 92.6452504,141.724654 L92.6452504,136.213722 L77.9442295,136.213722 L77.9442295,141.724654 C77.9442295,176.641923 95.9309285,183.971464 111.021526,183.971464 L114.924648,183.971464 L118.599903,183.971464 L124.112786,183.971464 C128.173943,183.971464 131.463296,180.6796 131.463296,176.623553 L131.463296,176.623553 Z" id="Stroke-126" stroke="#504A45" stroke-width="3.67309458"></path>
                            <path d="M241.720953,189.482396 C241.720953,192.524431 212.102071,194.993329 175.566359,194.993329 C139.030647,194.993329 109.411765,192.524431 109.411765,189.482396 C109.411765,186.440361 139.030647,183.971464 175.566359,183.971464 C212.102071,183.971464 241.720953,186.440361 241.720953,189.482396" id="Fill-128" fill="#E3ECF1"></path>
                            <path d="M162.007607,176.623553 L154.657097,176.623553 L172.210116,122.223301 C172.7026,120.705957 174.113898,119.67725 175.708959,119.67725 L180.383883,119.67725" id="Fill-130" fill="#E3ECF1"></path>
                            <path d="M162.007607,176.623553 L154.657097,176.623553 L172.210116,122.223301 C172.7026,120.705957 174.113898,119.67725 175.708959,119.67725 L180.383883,119.67725" id="Stroke-132" stroke="#504A45" stroke-width="3.67309458" stroke-linejoin="round"></path>
                            <path d="M233.675084,176.623553 L162.007607,176.623553 L180.383883,119.67725 L247.005235,119.67725 C248.177641,119.67725 249.283893,120.239365 249.974841,121.187245 C250.665789,122.1388 250.864253,123.362227 250.500403,124.479109 L233.675084,176.623553 Z" id="Fill-134" fill="#ADBAC7"></path>
                            <path d="M233.675084,176.623553 L162.007607,176.623553 L180.383883,119.67725 L247.005235,119.67725 C248.177641,119.67725 249.283893,120.239365 249.974841,121.187245 C250.665789,122.1388 250.864253,123.362227 250.500403,124.479109 L233.675084,176.623553 L233.675084,176.623553 Z" id="Stroke-136" stroke="#504A45" stroke-width="3.67309458" stroke-linejoin="round"></path>
                            <polygon id="Fill-138" fill="#CAD7DE" points="228.85756 119.67725 180.384618 119.67725 162.008342 176.623553 171.891104 176.623553"></polygon>
                            <g id="Group-2" transform="translate(182.479339, 126.971888)">
                                <ellipse id="Oval-2" stroke="#FFFFFF" stroke-width="0.79338843" fill="#7159C1" cx="7.43801653" cy="7.43975904" rx="7.04132231" ry="7.04306482"></ellipse>
                                <g id="Group" transform="translate(4.958678, 3.967871)" fill="#FFFFFF">
                                    <path d="M2.58239621,4.43954391 C2.41816282,4.33454145 1.72515676,3.89324095 1.72515676,3.89324095 C1.72515676,3.89324095 1.03247393,3.45123188 0.868014278,3.34666806 C0.852305279,3.33668068 0.832232669,3.34795023 0.831359947,3.3671152 C0.829549856,3.40716594 0.826867043,3.46577432 0.825412507,3.49850324 C0.824733723,3.51439532 0.828612488,3.52994999 0.836725572,3.54341271 C0.872959704,3.60360692 0.979722718,3.78091666 1.03350826,3.87036445 C1.05377481,3.9041056 1.05981922,3.94503361 1.05021928,3.98356601 L0.911197865,4.54181333 C0.905638302,4.56421745 0.913234217,4.58780252 0.930624015,4.60220999 C1.0022842,4.66156067 1.09084934,4.7268498 1.19764468,4.7949057 C1.30437537,4.86299534 1.40050411,4.91542908 1.48380059,4.95483875 C1.50400249,4.96438749 1.52759831,4.96067596 1.54411539,4.94529 L1.95639582,4.56124823 C1.98487242,4.53472769 2.02249644,4.52163612 2.06050834,4.52507772 C2.16125927,4.53415409 2.36101568,4.55227309 2.4289264,4.55844772 C2.44415055,4.5598311 2.45927773,4.55632202 2.47249786,4.54839285 C2.49974618,4.53209588 2.54845701,4.50287604 2.58171742,4.48293502 C2.59765269,4.47338628 2.59807288,4.44956503 2.58239621,4.43954391" id="Fill-22"></path>
                                    <path d="M1.41704631,5.1456852 C1.40992675,5.10094185 1.382387,5.06242307 1.34313234,5.04220992 C1.23316752,4.98551939 1.1457264,4.9313053 1.12181115,4.91621237 C1.09789591,4.90111943 1.01129618,4.84543287 0.912301954,4.77013552 C0.876995415,4.74326274 0.831268431,4.73553221 0.789521928,4.74942039 L0.765639045,4.75735171 C0.599785688,4.81256976 0.471989609,4.9503137 0.425647754,5.12399957 C0.312058431,5.549714 0.0982127758,6.35127931 0.00206637141,6.71163565 C-0.0120756611,6.76457805 0.0496056067,6.80349841 0.0886660948,6.76635172 C0.354775783,6.51331919 0.946670006,5.95046319 1.26099852,5.65151601 C1.38924767,5.52956778 1.44937558,5.34908842 1.42109151,5.17131976 L1.41704631,5.1456852 Z" id="Fill-24"></path>
                                    <path d="M5.47484742,0.298637841 C5.52517287,0.22936824 5.49500352,0.176902494 5.47251424,0.155417805 C5.47251424,0.155417805 5.47248183,0.15538413 5.47244942,0.155350455 C5.44872873,0.13602097 5.419888,0.12224787 5.38670496,0.117028235 L4.65745574,0.00216260153 C4.58979345,-0.00847871783 4.52206634,0.0206838852 4.48146248,0.0778978143 L4.0835252,0.638486559 C4.02231156,0.724694716 4.0432778,0.838314372 4.1145695,0.899400934 C4.11975435,0.903913392 4.12118018,0.911793356 4.11758319,0.917955892 C4.1145695,0.923040827 4.10883376,0.925499106 4.10348688,0.924657229 L3.90280076,0.893036347 L3.62635102,0.849494493 C3.5494208,0.837405146 3.47239336,0.870507731 3.42621579,0.935601624 L2.263027,2.57433113 C2.24789371,2.59564744 2.21963628,2.60147323 2.1978275,2.58780115 L1.07809424,1.8850363 C1.00404809,1.83856472 0.90741544,1.86442716 0.864348776,1.94302476 C0.822383892,2.01960185 0.852196782,2.11762995 0.924752283,2.16319231 L0.95369023,2.18134317 C0.968013379,2.19030073 0.975725844,2.20734031 0.973230635,2.22454827 L0.939237459,2.45872464 C0.935996928,2.48121959 0.911790157,2.49300586 0.89309229,2.48125326 C0.89309229,2.48125326 0.733366491,2.38258533 0.729283421,2.37999235 C0.596842898,2.29573735 0.423733703,2.3390098 0.342655604,2.47663978 C0.270456562,2.599217 0.295765113,2.75509886 0.395638295,2.84730118 C0.3987168,2.85019723 0.427687152,2.87336567 0.43517278,2.87811386 C0.435334806,2.87821488 0.435496833,2.87834958 0.435658859,2.87841693 C0.435691265,2.87845061 0.43572367,2.87848428 0.43572367,2.87848428 L1.27220207,3.41065128 C1.72435344,3.69443102 2.06804421,3.46173634 2.17533821,3.37828954 C2.27057743,3.30420441 2.37877878,3.22240768 2.55927639,3.33629674 C2.6239574,3.37714459 2.70561879,3.37562921 2.77075348,3.33552221 L2.97899003,3.20732126 C3.04043051,3.16950416 3.11693946,3.16984091 3.17812069,3.20819681 L3.81238993,3.60630338 C3.83730962,3.62192861 3.86958531,3.61529462 3.88688975,3.59094755 L5.43719244,1.41021794 C5.56363798,1.23497292 5.47005143,1.14974134 5.393024,1.12879545 C5.38806598,1.12761682 5.38323759,1.1261688 5.37811755,1.12536059 L5.00629896,1.06683334 C5.00082247,1.06592411 4.99531356,1.06349951 4.99025833,1.06030038 C4.96964855,1.04723445 4.96316749,1.01914945 4.97577316,0.997698437 C5.10179743,0.820803341 5.47484742,0.298637841 5.47484742,0.298637841" id="Fill-26"></path>
                                </g>
                            </g>
                            <path d="M233.675084,176.623553 L158.332352,176.623553 L158.332352,185.808441 L226.324574,185.808441 C230.385731,185.808441 233.675084,182.520251 233.675084,178.460531 L233.675084,176.623553 Z" id="Fill-140" fill="#CAD7DE"></path>
                            <path d="M233.675084,176.623553 L158.332352,176.623553 L158.332352,185.808441 L226.324574,185.808441 C230.385731,185.808441 233.675084,182.520251 233.675084,178.460531 L233.675084,176.623553 L233.675084,176.623553 Z" id="Stroke-142" stroke="#504A45" stroke-width="3.67309458" stroke-linejoin="round"></path>
                            <path d="M158.332352,176.623553 L121.5798,176.623553 L121.5798,178.460531 C121.5798,182.520251 124.869153,185.808441 128.93031,185.808441 L158.332352,185.808441 L158.332352,176.623553 Z" id="Fill-144" fill="#E3ECF1"></path>
                            <path d="M158.332352,176.623553 L121.5798,176.623553 L121.5798,178.460531 C121.5798,182.520251 124.869153,185.808441 128.93031,185.808441 L158.332352,185.808441 L158.332352,176.623553 L158.332352,176.623553 Z" id="Stroke-146" stroke="#504A45" stroke-width="3.67309458" stroke-linejoin="round"></path>
                            <path d="M212.876447,146.123113 C212.854396,143.837913 214.739802,142.739401 214.828008,142.687965 C213.765859,141.137556 212.111994,140.924467 211.523953,140.898749 C210.120006,140.755465 208.782213,141.725389 208.065538,141.725389 C207.356214,141.725389 206.253637,140.920793 205.088581,140.939163 C203.556,140.96488 202.141027,141.831934 201.354522,143.202319 C199.759461,145.965133 200.946569,150.054245 202.497526,152.295358 C203.254629,153.39387 204.162417,154.624645 205.345849,154.576884 C206.492529,154.532796 206.922534,153.838419 208.30443,153.838419 C209.686326,153.838419 210.075903,154.576884 211.285062,154.55484 C212.516272,154.53647 213.295426,153.441632 214.048854,152.339445 C214.919889,151.068257 215.276389,149.837482 215.29844,149.771351 C215.269038,149.760329 212.902174,148.852862 212.876447,146.123113" id="Fill-148" fill="#EDF2F4"></path>
                            <path d="M212.876447,146.123113 C212.854396,143.837913 214.739802,142.739401 214.828008,142.687965 C213.765859,141.137556 212.111994,140.924467 211.523953,140.898749 C210.120006,140.755465 208.782213,141.725389 208.065538,141.725389 C207.356214,141.725389 206.253637,140.920793 205.088581,140.939163 C203.556,140.96488 202.141027,141.831934 201.354522,143.202319 C199.759461,145.965133 200.946569,150.054245 202.497526,152.295358 C203.254629,153.39387 204.162417,154.624645 205.345849,154.576884 C206.492529,154.532796 206.922534,153.838419 208.30443,153.838419 C209.686326,153.838419 210.075903,154.576884 211.285062,154.55484 C212.516272,154.53647 213.295426,153.441632 214.048854,152.339445 C214.919889,151.068257 215.276389,149.837482 215.29844,149.771351 C215.269038,149.760329 212.902174,148.852862 212.876447,146.123113 L212.876447,146.123113 Z" id="Stroke-150" stroke="#504A45" stroke-width="3.67309458" stroke-linejoin="round"></path>
                            <path d="M209.786293,136.210048 L211.443833,134.553094" id="Stroke-152" stroke="#504A45" stroke-width="3.67309458" stroke-linecap="round" stroke-linejoin="round"></path>
                            <path d="M233.675084,176.623553 L162.007607,176.623553 L180.383883,119.67725 L247.005235,119.67725 C248.177641,119.67725 249.283893,120.239365 249.974841,121.187245 C250.665789,122.1388 250.864253,123.362227 250.500403,124.479109 L233.675084,176.623553 L233.675084,176.623553 Z" id="Stroke-154" stroke="#504A45" stroke-width="3.67309458" stroke-linejoin="round"></path>
                            <path d="M44.6872124,106.372756 C42.5335129,108.525694 42.5335129,112.015951 44.6872124,114.165215 L47.9177618,117.394621 C50.0677861,119.547559 50.0677861,123.037816 47.9177618,125.18708 L44.6872124,128.416487 C42.5335129,130.569424 42.5335129,134.059682 44.6872124,136.208945" id="Stroke-156" stroke="#FFFFFF" stroke-width="3.67309458" stroke-linecap="round" stroke-linejoin="round"></path>
                            <path d="M58.627088,106.372756 C56.4733884,108.525694 56.4733884,112.015951 58.627088,114.165215 L61.8576373,117.394621 C64.0076616,119.547559 64.0076616,123.037816 61.8576373,125.18708 L58.627088,128.416487 C56.4733884,130.569424 56.4733884,134.059682 58.627088,136.208945" id="Stroke-158" stroke="#FFFFFF" stroke-width="3.67309458" stroke-linecap="round" stroke-linejoin="round"></path>
                            <path d="M76.3344677,191.319374 C76.3344677,193.347397 64.8162178,194.993329 50.6076811,194.993329 C36.3991444,194.993329 24.8808945,193.347397 24.8808945,191.319374 C24.8808945,189.291351 36.3991444,187.645419 50.6076811,187.645419 C64.8162178,187.645419 76.3344677,189.291351 76.3344677,191.319374" id="Fill-160" fill="#E3ECF1"></path>
                            <path d="M34.0690326,182.134486 C25.9614195,182.134486 19.3680117,175.543411 19.3680117,167.438666 C19.3680117,159.333921 25.9614195,152.742845 34.0690326,152.742845 L34.0690326,160.090756 C30.0152261,160.090756 26.7185221,163.386293 26.7185221,167.438666 C26.7185221,171.491038 30.0152261,174.786576 34.0690326,174.786576 L34.0690326,182.134486 Z" id="Fill-162" fill="#FFFFFF"></path>
                            <path d="M34.0690326,182.134486 C25.9614195,182.134486 19.3680117,175.543411 19.3680117,167.438666 C19.3680117,159.333921 25.9614195,152.742845 34.0690326,152.742845 L34.0690326,160.090756 C30.0152261,160.090756 26.7185221,163.386293 26.7185221,167.438666 C26.7185221,171.491038 30.0152261,174.786576 34.0690326,174.786576 L34.0690326,182.134486 L34.0690326,182.134486 Z" id="Stroke-164" stroke="#504A45" stroke-width="3.67309458" stroke-linejoin="round"></path>
                            <path d="M71.0038892,186.085825 C71.0038892,188.113848 69.3573748,189.75978 67.3286339,189.75978 L38.385999,189.75978 C36.3572581,189.75978 34.7107438,188.113848 34.7107438,186.085825 L34.7107438,147.509296 C34.7107438,145.481273 36.3572581,143.835341 38.385999,143.835341 L67.3286339,143.835341 C69.3573748,143.835341 71.0038892,145.481273 71.0038892,147.509296 L71.0038892,186.085825 Z" id="Fill-166" fill="#FFFFFF"></path>
                            <path d="M70.5918814,185.808441 C70.5918814,187.836464 68.945367,189.482396 66.9166262,189.482396 L37.9739912,189.482396 C35.9452504,189.482396 34.298736,187.836464 34.298736,185.808441 L34.298736,147.231913 C34.298736,145.20389 35.9452504,143.557958 37.9739912,143.557958 L66.9166262,143.557958 C68.945367,143.557958 70.5918814,145.20389 70.5918814,147.231913 L70.5918814,185.808441 L70.5918814,185.808441 Z" id="Stroke-168" stroke="#504A45" stroke-width="3.67309458" stroke-linejoin="round"></path>
                            <g id="Group" transform="translate(42.644628, 154.746988)" fill="#504A45">
                                <path d="M9.3091264,15.5866044 C8.71709124,15.2179558 6.21891493,13.6686128 6.21891493,13.6686128 C6.21891493,13.6686128 3.72190381,12.1167821 3.12905301,11.7496735 C3.07242457,11.7146092 3.00006602,11.754175 2.99691999,11.8214604 C2.9903949,11.9620729 2.98072379,12.1678385 2.97548042,12.2827451 C2.97303351,12.3385399 2.98701584,12.3931501 3.01626222,12.4404158 C3.14688048,12.6517491 3.53174412,13.2742583 3.72563243,13.5882967 C3.7986901,13.706757 3.82047924,13.8504494 3.78587297,13.9857312 L3.28472295,15.9456578 C3.26468161,16.0243154 3.29206368,16.1071192 3.35475112,16.1577018 C3.61307467,16.3660736 3.93233788,16.5952944 4.31731803,16.8342289 C4.70206515,17.0732819 5.0485939,17.2573693 5.34886443,17.395731 C5.42168907,17.4292553 5.50674825,17.4162246 5.56628967,17.3622067 L7.05249484,16.0138909 C7.15514845,15.9207811 7.29077705,15.8748185 7.42780388,15.8869014 C7.79099491,15.9187673 8.51108491,15.9823805 8.7558922,16.0040587 C8.81077285,16.0089156 8.86530394,15.9965957 8.91296038,15.9687575 C9.01118625,15.9115412 9.18678101,15.8089545 9.30667949,15.7389444 C9.36412356,15.7054202 9.36563832,15.6217872 9.3091264,15.5866044" id="Fill-22"></path>
                                <path d="M5.10822589,18.0657656 C5.08256102,17.9086781 4.98328462,17.7734442 4.84177784,17.7024787 C4.4453722,17.5034464 4.13016089,17.3131084 4.04395025,17.2601193 C3.95773961,17.2071302 3.64556142,17.0116226 3.28870302,16.7472644 C3.16142858,16.6529179 2.99659009,16.6257771 2.84610061,16.6745365 L2.76000662,16.7023822 C2.16213173,16.8962449 1.70144725,17.3798442 1.53439226,17.9896305 C1.12492086,19.4842531 0.35404139,22.2984343 0.00744893931,23.563594 C-0.0435308322,23.7494672 0.178820299,23.886111 0.319627128,23.7556943 C1.27891011,22.8673332 3.41259436,20.8912262 4.54569853,19.8416654 C5.00801623,19.4135225 5.22476775,18.7798853 5.12280821,18.1557649 L5.10822589,18.0657656 Z" id="Fill-24"></path>
                                <path d="M19.7359516,1.0484748 C19.9173669,0.805279123 19.8086112,0.621079386 19.7275409,0.545649712 C19.7275409,0.545649712 19.727424,0.545531483 19.7273072,0.545413255 C19.6417979,0.477550194 19.5378317,0.429194807 19.4182121,0.410869416 L16.789385,0.00759258502 C16.5454732,-0.029767567 16.3013278,0.0726181662 16.1549574,0.273488098 L14.720457,2.2416351 C14.4997916,2.54429962 14.5753715,2.943202 14.8323667,3.15766819 C14.8510573,3.17351079 14.8561972,3.20117622 14.8432306,3.222812 C14.8323667,3.24066448 14.8116903,3.24929515 14.7924156,3.24633944 L14.0689742,3.13532304 L13.072417,2.98245381 C12.7950958,2.94000984 12.5174242,3.05622829 12.3509614,3.28476365 L8.15785133,9.03810884 C8.10329826,9.11294737 8.00143472,9.13340087 7.92281755,9.08540017 L3.88635775,6.61809316 C3.6194332,6.45493807 3.27108791,6.54573743 3.11583946,6.82168235 C2.96456275,7.09053357 3.07203346,7.43469623 3.33358447,7.59465916 L3.43790115,7.65838423 C3.48953382,7.68983297 3.51733603,7.7496565 3.50834119,7.81007118 L3.38580122,8.63223098 C3.37411962,8.71120751 3.28685807,8.75258742 3.21945524,8.71132573 C3.21945524,8.71132573 2.64366922,8.36491673 2.6289504,8.35581315 C2.15152344,8.06000587 1.52749241,8.21192927 1.23521879,8.69512845 C0.974952763,9.12547957 1.06618605,9.67275851 1.42621294,9.99646767 C1.43731046,10.0066353 1.54174396,10.0879764 1.56872845,10.1046466 C1.56931253,10.1050013 1.56989661,10.1054742 1.57048069,10.1057106 C1.57059751,10.1058289 1.57071433,10.1059471 1.57071433,10.1059471 L4.58608554,11.9743094 C6.21601909,12.9706195 7.4549695,12.1536618 7.84174725,11.860692 C8.18506946,11.6005896 8.57511805,11.313413 9.22578313,11.7132612 C9.45894785,11.8566722 9.75332416,11.8513519 9.9881243,11.710542 L10.7387839,11.2604467 C10.960267,11.1276763 11.2360695,11.1288586 11.4566181,11.2635207 L13.7430576,12.661216 C13.8328891,12.7160739 13.9492378,12.692783 14.0116175,12.6073039 L19.6002114,4.95107372 C20.0560274,4.33581349 19.7186628,4.03657759 19.4409912,3.96303957 C19.4231184,3.95890158 19.4057128,3.95381776 19.3872559,3.95098028 L18.0469092,3.74549945 C18.0271673,3.74230728 18.0073086,3.73379484 17.9890853,3.72256315 C17.9147903,3.67669056 17.8914271,3.57808813 17.9368685,3.50277669 C18.3911659,2.88172327 19.7359516,1.0484748 19.7359516,1.0484748" id="Fill-26"></path>
                            </g>
                        </g>
                    </g>
                </g>
            </g>
        </g>
    </g>
</svg>