<?xml version="1.0" encoding="UTF-8"?>
<svg width="146px" height="153px" viewBox="0 0 146 153" version="1.1" xmlns="http://www.w3.org/2000/svg" xmlns:xlink="http://www.w3.org/1999/xlink">
    <!-- Generator: Sketch 50.2 (55047) - http://www.bohemiancoding.com/sketch -->
    <title>noun_235675_cc</title>
    <desc>Created with Sketch.</desc>
    <defs></defs>
    <g id="Home" stroke="none" stroke-width="1" fill="none" fill-rule="evenodd">
        <g transform="translate(-466.000000, -1827.000000)" fill="#FFFFFF" fill-rule="nonzero" id="Group-19">
            <g transform="translate(0.000000, 1799.000000)">
                <g id="Group-16">
                    <g id="Group-14">
                        <g transform="translate(466.000000, 28.000000)" id="noun_235675_cc">
                            <g>
                                <g id="Group">
                                    <path d="M142.296909,23.0533333 C141.706273,21.6666667 140.213091,20 136.503364,20 C130.039545,20 121.923273,24.1666667 115.386455,27.52 C113.515,28.4866667 111.165727,29.6866667 109.513273,30.4 C108.099727,24.92 103.520636,16.7133333 98.9349091,14.1333333 C96.3666364,8.12666667 86.1068182,0 80.0942727,0 C77.0548182,0 74.8117273,0.866666667 73.2256364,1.98666667 C71.6461818,0.866666667 69.4030909,0 66.3636364,0 C60.2117273,0 49.6864545,8.14 47.0650909,14.1533333 C42.5855455,16.7333333 38.2453636,24.8666667 36.9114545,30.3866667 C35.2523636,29.6666667 32.9296364,28.4733333 31.0714545,27.52 C24.5346364,24.1666667 16.4183636,20 9.95454545,20 C6.24481818,20 4.75827273,21.6666667 4.161,23.0533333 C2.42890909,27.0866667 6.73590909,31.6666667 12.6953636,38.0133333 C15.2636364,40.7466667 19.564,45.32 19.9090909,46.6666667 C19.9090909,52.9266667 32.0868182,60.8933333 40.2296364,65.52 C41.2781818,69.8133333 44.603,81.2533333 51.1398182,86.0266667 C58.5128182,91.42 67.5316364,93.3333333 73,93.3333333 C79.132,93.3333333 88.4096364,91.0733333 95.3180909,86.0266667 C101.848273,81.2533333 105.173091,69.8066667 106.228273,65.52 C114.377727,60.8933333 126.555455,52.94 126.542182,46.8533333 C126.900545,45.32 131.200909,40.74 133.769182,38.0066667 C139.728636,31.6666667 144.029,27.0866667 142.296909,23.0533333 Z M86.4054545,29.0866667 L90.1815455,15.7533333 C90.6792727,13.98 92.491,12.9333333 94.2761818,13.46 C96.0414545,13.9666667 97.0634545,15.8066667 96.5590909,17.58 L92.783,30.9133333 C92.3649091,32.38 91.0376364,33.3333333 89.5909091,33.3333333 C89.2922727,33.3333333 88.987,33.2933333 88.6817273,33.2066667 C86.9230909,32.7 85.8944545,30.86 86.4054545,29.0866667 Z M52.2879091,13.4333333 C54.0266364,12.96 55.8649091,14.0666667 56.3095455,15.86 L59.6277273,29.1933333 C60.0657273,30.98 58.9906364,32.7866667 57.2120909,33.2333333 C56.9466364,33.3 56.6745455,33.3333333 56.4090909,33.3333333 C54.9159091,33.3333333 53.5620909,32.3266667 53.1904545,30.8066667 L49.8722727,17.4733333 C49.4276364,15.6933333 50.5027273,13.88 52.2879091,13.4333333 Z M63.0454545,53.3333333 L56.4090909,53.3333333 C54.5774545,53.3333333 53.0909091,51.84 53.0909091,50 C53.0909091,48.16 54.5774545,46.6666667 56.4090909,46.6666667 L63.0454545,46.6666667 C64.8770909,46.6666667 66.3636364,48.16 66.3636364,50 C66.3636364,51.84 64.8770909,53.3333333 63.0454545,53.3333333 Z M68.7129091,42.36 C67.4188182,43.66 65.3150909,43.66 64.021,42.36 C61.7845455,40.12 59.3357273,39.7133333 56.0573636,41.06 C53.0510909,42.2866667 49.6001818,44.8866667 45.4856364,49.0266667 C44.8352727,49.6733333 43.9858182,50 43.1363636,50 C42.2869091,50 41.4374545,49.6733333 40.7870909,49.0266667 C39.493,47.7266667 39.493,45.6133333 40.7870909,44.3133333 C45.5387273,39.54 49.713,36.4533333 53.5488182,34.8866667 C59.3025455,32.5266667 64.5519091,33.4733333 68.7062727,37.6466667 C70.007,38.9466667 70.007,41.0533333 68.7129091,42.36 Z M73,36.6666667 C71.1683636,36.6666667 69.6818182,35.1733333 69.6818182,33.3333333 L69.6818182,6.66666667 C69.6818182,4.82666667 71.1683636,3.33333333 73,3.33333333 C74.8316364,3.33333333 76.3181818,4.82666667 76.3181818,6.66666667 L76.3181818,33.3333333 C76.3181818,35.1733333 74.8316364,36.6666667 73,36.6666667 Z M89.5909091,53.3333333 L82.9545455,53.3333333 C81.1229091,53.3333333 79.6363636,51.84 79.6363636,50 C79.6363636,48.16 81.1229091,46.6666667 82.9545455,46.6666667 L89.5909091,46.6666667 C91.4225455,46.6666667 92.9090909,48.16 92.9090909,50 C92.9090909,51.84 91.4225455,53.3333333 89.5909091,53.3333333 Z M105.212909,49.0266667 C104.562545,49.6733333 103.713091,50 102.863636,50 C102.014182,50 101.164727,49.6733333 100.514364,49.0266667 C96.3998182,44.8933333 92.9422727,42.2866667 89.9426364,41.06 C86.6642727,39.72 84.2154545,40.12 81.979,42.36 C80.6849091,43.66 78.5811818,43.66 77.2870909,42.36 C75.993,41.06 75.993,38.9466667 77.2870909,37.6466667 C81.4414545,33.4733333 86.6908182,32.5266667 92.4445455,34.8866667 C96.2803636,36.4533333 100.454636,39.54 105.206273,44.3133333 C106.507,45.6133333 106.507,47.72 105.212909,49.0266667 Z" id="Shape"></path>
                                    <g transform="translate(0.000000, 100.000000)" id="Shape">
                                        <path d="M20.3338182,24.9666667 C19.4312727,23.36 20.002,21.3333333 21.5947273,20.4266667 C23.1808182,19.5266667 25.2115455,20.0933333 26.1140909,21.7 C29.9963636,28.6333333 37.5087273,49.8 41.0392727,60 L66.3636364,60 L66.3636364,46.0533333 C64.2731818,45.3066667 62.4349091,43.9 61.2337273,41.96 C52.5135455,27.9133333 39.639,10.38 34.0578182,6.54666667 C33.7658182,6.34666667 33.4406364,6.19333333 33.1021818,6.09333333 C29.8370909,5.14666667 27.0299091,3.89333333 24.5412727,2.26666667 C23.3467273,1.49333333 21.7805455,1.55333333 20.659,2.46 L14.5137273,7.39333333 C13.9761818,7.82666667 13.5846364,8.41333333 13.3988182,9.08 L0.126090909,55.7466667 C-0.159272727,56.7533333 0.0331818182,57.8333333 0.663636364,58.6666667 C1.29409091,59.5066667 2.27627273,60 3.31818182,60 L34.0113636,60 C30.3082727,49.3866667 23.6851818,30.9466667 20.3338182,24.9666667 Z"></path>
                                        <path d="M145.867273,55.7533333 L132.594545,9.08666667 C132.408727,8.42 132.017182,7.83333333 131.479636,7.4 L125.327727,2.45333333 C124.212818,1.55333333 122.646636,1.48 121.445455,2.26 C118.857273,3.94666667 115.983727,5.22666667 112.639,6.16666667 C112.393455,6.24 112.154545,6.34 111.928909,6.46 C105.319091,10.1533333 87.4473636,30.4 77.4463636,42.92 C76.2783636,44.3866667 74.8183636,45.3666667 73,45.9733333 L73,60 L98.3177273,60 C101.848273,49.7933333 109.360636,28.6333333 113.242909,21.7 C114.145455,20.0866667 116.162909,19.52 117.762273,20.4266667 C119.361636,21.3333333 119.925727,23.36 119.023182,24.9666667 C115.678455,30.9466667 109.055364,49.3866667 105.352273,60 L142.681818,60 C143.723727,60 144.705909,59.5066667 145.329727,58.6733333 C145.960182,57.84 146.152636,56.76 145.867273,55.7533333 Z"></path>
                                    </g>
                                    <path d="M115.890818,72.6066667 C115.067909,71.9 113.946364,71.6466667 112.884545,71.92 C111.836,72.2 110.986545,72.9866667 110.614909,74.0133333 C108.610727,79.62 105.013818,87.1933333 99.2269091,91.42 C90.5598182,97.7466667 80.0013636,100 73,100 C66.2242727,100 55.8980909,97.7466667 47.231,91.42 C41.3644545,87.1333333 37.741,79.4266667 35.7368182,73.72 C35.3718182,72.6933333 34.5356364,71.9066667 33.4937273,71.62 C32.4451818,71.3266667 31.3302727,71.5666667 30.4940909,72.26 C24.2758182,77.4133333 21.2629091,83.7 22.4309091,89.0733333 C23.1940909,92.5933333 26.1074545,97.32 35.6439091,99.8866667 C41.6763636,101.506667 57.5372727,123.4 66.868,138.433333 C67.4320909,139.353333 68.4076364,139.933333 69.4893636,139.993333 C69.5490909,140 69.6154545,140 69.6818182,140 C70.6839091,140 71.6395455,139.546667 72.27,138.753333 C83.5252727,124.66 103.825909,101.646667 110.356091,99.8866667 C119.839455,97.34 122.759455,92.6533333 123.549182,89.1666667 C124.730455,83.92 121.870182,77.7333333 115.890818,72.6066667 Z" id="Shape"></path>
                                </g>
                            </g>
                        </g>
                    </g>
                </g>
            </g>
        </g>
    </g>
</svg>